<mxfile host="www.draw.io" modified="2019-12-16T07:04:53.375Z" agent="Mozilla/5.0 (Windows NT 10.0; Win64; x64) AppleWebKit/537.36 (KHTML, like Gecko) Chrome/79.0.3945.79 Safari/537.36" etag="e9Y_x7TIItMFuYqlfh7y" version="12.4.2" type="github" pages="1">
  <diagram id="lWWkJjP1WQ8fYyyUpwnd" name="Page-1">
    <mxGraphModel dx="1038" dy="548" grid="1" gridSize="10" guides="1" tooltips="1" connect="1" arrows="1" fold="1" page="1" pageScale="1" pageWidth="850" pageHeight="1100" math="0" shadow="0">
      <root>
        <mxCell id="0"/>
        <mxCell id="1" parent="0"/>
        <mxCell id="SIbpzphKHmyDt8aisj-v-1" value="" style="ellipse;html=1;shape=startState;fillColor=#000000;strokeColor=#ff0000;" vertex="1" parent="1">
          <mxGeometry x="125" y="110" width="30" height="30" as="geometry"/>
        </mxCell>
        <mxCell id="SIbpzphKHmyDt8aisj-v-2" value="" style="edgeStyle=orthogonalEdgeStyle;html=1;verticalAlign=bottom;endArrow=open;endSize=8;strokeColor=#ff0000;" edge="1" source="SIbpzphKHmyDt8aisj-v-1" parent="1" target="SIbpzphKHmyDt8aisj-v-4">
          <mxGeometry relative="1" as="geometry">
            <mxPoint x="140" y="200" as="targetPoint"/>
          </mxGeometry>
        </mxCell>
        <mxCell id="SIbpzphKHmyDt8aisj-v-7" value="" style="edgeStyle=orthogonalEdgeStyle;rounded=0;orthogonalLoop=1;jettySize=auto;html=1;" edge="1" parent="1" source="SIbpzphKHmyDt8aisj-v-4" target="SIbpzphKHmyDt8aisj-v-6">
          <mxGeometry relative="1" as="geometry"/>
        </mxCell>
        <mxCell id="SIbpzphKHmyDt8aisj-v-9" value="" style="edgeStyle=orthogonalEdgeStyle;rounded=0;orthogonalLoop=1;jettySize=auto;html=1;" edge="1" parent="1" source="SIbpzphKHmyDt8aisj-v-4" target="SIbpzphKHmyDt8aisj-v-8">
          <mxGeometry relative="1" as="geometry"/>
        </mxCell>
        <mxCell id="SIbpzphKHmyDt8aisj-v-4" value="Waiting In Support Page" style="rounded=1;whiteSpace=wrap;html=1;" vertex="1" parent="1">
          <mxGeometry x="80" y="240" width="120" height="60" as="geometry"/>
        </mxCell>
        <mxCell id="SIbpzphKHmyDt8aisj-v-14" value="" style="edgeStyle=orthogonalEdgeStyle;rounded=0;orthogonalLoop=1;jettySize=auto;html=1;" edge="1" parent="1" source="SIbpzphKHmyDt8aisj-v-8" target="SIbpzphKHmyDt8aisj-v-13">
          <mxGeometry relative="1" as="geometry"/>
        </mxCell>
        <mxCell id="SIbpzphKHmyDt8aisj-v-8" value="Ticket Selected" style="rounded=1;whiteSpace=wrap;html=1;" vertex="1" parent="1">
          <mxGeometry x="360" y="240" width="120" height="60" as="geometry"/>
        </mxCell>
        <mxCell id="SIbpzphKHmyDt8aisj-v-19" value="" style="edgeStyle=orthogonalEdgeStyle;rounded=0;orthogonalLoop=1;jettySize=auto;html=1;" edge="1" parent="1" source="SIbpzphKHmyDt8aisj-v-13">
          <mxGeometry relative="1" as="geometry">
            <mxPoint x="720" y="380" as="targetPoint"/>
          </mxGeometry>
        </mxCell>
        <mxCell id="SIbpzphKHmyDt8aisj-v-13" value="Ticket Deleted" style="rounded=1;whiteSpace=wrap;html=1;" vertex="1" parent="1">
          <mxGeometry x="660" y="240" width="120" height="60" as="geometry"/>
        </mxCell>
        <mxCell id="SIbpzphKHmyDt8aisj-v-17" value="" style="edgeStyle=orthogonalEdgeStyle;rounded=0;orthogonalLoop=1;jettySize=auto;html=1;entryX=0;entryY=0.5;entryDx=0;entryDy=0;" edge="1" parent="1" source="SIbpzphKHmyDt8aisj-v-6" target="SIbpzphKHmyDt8aisj-v-23">
          <mxGeometry relative="1" as="geometry">
            <mxPoint x="320" y="450" as="targetPoint"/>
          </mxGeometry>
        </mxCell>
        <mxCell id="SIbpzphKHmyDt8aisj-v-6" value="Creating New Ticket" style="rounded=1;whiteSpace=wrap;html=1;" vertex="1" parent="1">
          <mxGeometry x="80" y="420" width="120" height="60" as="geometry"/>
        </mxCell>
        <mxCell id="SIbpzphKHmyDt8aisj-v-27" value="" style="edgeStyle=orthogonalEdgeStyle;rounded=0;orthogonalLoop=1;jettySize=auto;html=1;" edge="1" parent="1" source="SIbpzphKHmyDt8aisj-v-23" target="SIbpzphKHmyDt8aisj-v-26">
          <mxGeometry relative="1" as="geometry"/>
        </mxCell>
        <mxCell id="SIbpzphKHmyDt8aisj-v-23" value="Ticket Data Entered" style="rounded=1;whiteSpace=wrap;html=1;" vertex="1" parent="1">
          <mxGeometry x="360" y="420" width="120" height="60" as="geometry"/>
        </mxCell>
        <mxCell id="SIbpzphKHmyDt8aisj-v-32" value="" style="edgeStyle=orthogonalEdgeStyle;rounded=0;orthogonalLoop=1;jettySize=auto;html=1;entryX=0.5;entryY=1;entryDx=0;entryDy=0;" edge="1" parent="1" source="SIbpzphKHmyDt8aisj-v-26" target="SIbpzphKHmyDt8aisj-v-20">
          <mxGeometry relative="1" as="geometry">
            <mxPoint x="700" y="610" as="targetPoint"/>
          </mxGeometry>
        </mxCell>
        <mxCell id="SIbpzphKHmyDt8aisj-v-26" value="Ticket Data Entered" style="rounded=1;whiteSpace=wrap;html=1;" vertex="1" parent="1">
          <mxGeometry x="530" y="580" width="120" height="60" as="geometry"/>
        </mxCell>
        <mxCell id="SIbpzphKHmyDt8aisj-v-5" value="Go To Support Page" style="text;html=1;strokeColor=none;fillColor=none;align=center;verticalAlign=middle;whiteSpace=wrap;rounded=0;" vertex="1" parent="1">
          <mxGeometry x="120" y="160" width="170" height="20" as="geometry"/>
        </mxCell>
        <mxCell id="SIbpzphKHmyDt8aisj-v-10" value="Select Existing Ticket" style="text;html=1;strokeColor=none;fillColor=none;align=center;verticalAlign=middle;whiteSpace=wrap;rounded=0;" vertex="1" parent="1">
          <mxGeometry x="210" y="270" width="130" height="20" as="geometry"/>
        </mxCell>
        <mxCell id="SIbpzphKHmyDt8aisj-v-12" value="Click Create New" style="text;html=1;strokeColor=none;fillColor=none;align=center;verticalAlign=middle;whiteSpace=wrap;rounded=0;" vertex="1" parent="1">
          <mxGeometry x="125" y="360" width="130" height="20" as="geometry"/>
        </mxCell>
        <mxCell id="SIbpzphKHmyDt8aisj-v-15" value="Click On Delete" style="text;html=1;strokeColor=none;fillColor=none;align=center;verticalAlign=middle;whiteSpace=wrap;rounded=0;" vertex="1" parent="1">
          <mxGeometry x="470" y="250" width="130" height="20" as="geometry"/>
        </mxCell>
        <mxCell id="SIbpzphKHmyDt8aisj-v-20" value="" style="ellipse;html=1;shape=endState;fillColor=#000000;strokeColor=#ff0000;" vertex="1" parent="1">
          <mxGeometry x="705" y="380" width="30" height="30" as="geometry"/>
        </mxCell>
        <mxCell id="SIbpzphKHmyDt8aisj-v-21" value="Show Status Message" style="text;html=1;strokeColor=none;fillColor=none;align=center;verticalAlign=middle;whiteSpace=wrap;rounded=0;" vertex="1" parent="1">
          <mxGeometry x="590" y="330" width="135" height="20" as="geometry"/>
        </mxCell>
        <mxCell id="SIbpzphKHmyDt8aisj-v-22" value="Entering The Ticket Subject and Body" style="text;html=1;strokeColor=none;fillColor=none;align=center;verticalAlign=middle;whiteSpace=wrap;rounded=0;" vertex="1" parent="1">
          <mxGeometry x="210" y="420" width="135" height="20" as="geometry"/>
        </mxCell>
        <mxCell id="SIbpzphKHmyDt8aisj-v-28" value="Click On Send" style="text;html=1;strokeColor=none;fillColor=none;align=center;verticalAlign=middle;whiteSpace=wrap;rounded=0;" vertex="1" parent="1">
          <mxGeometry x="495" y="430" width="95" height="20" as="geometry"/>
        </mxCell>
        <mxCell id="SIbpzphKHmyDt8aisj-v-33" value="Show Status Message" style="text;html=1;strokeColor=none;fillColor=none;align=center;verticalAlign=middle;whiteSpace=wrap;rounded=0;" vertex="1" parent="1">
          <mxGeometry x="640" y="500" width="135" height="20" as="geometry"/>
        </mxCell>
        <mxCell id="SIbpzphKHmyDt8aisj-v-34" value="( Athlete - Coach ) Support State Diagram" style="text;html=1;strokeColor=none;fillColor=none;align=center;verticalAlign=middle;whiteSpace=wrap;rounded=0;" vertex="1" parent="1">
          <mxGeometry x="330" y="60" width="180" height="20" as="geometry"/>
        </mxCell>
      </root>
    </mxGraphModel>
  </diagram>
</mxfile>
